<?xml version="1.0" encoding="UTF-8" standalone="no"?>
<svg
   xmlns:dc="http://purl.org/dc/elements/1.1/"
   xmlns:cc="http://creativecommons.org/ns#"
   xmlns:rdf="http://www.w3.org/1999/02/22-rdf-syntax-ns#"
   xmlns:svg="http://www.w3.org/2000/svg"
   xmlns="http://www.w3.org/2000/svg"
   xmlns:sodipodi="http://sodipodi.sourceforge.net/DTD/sodipodi-0.dtd"
   xmlns:inkscape="http://www.inkscape.org/namespaces/inkscape"
   width="117.30832mm"
   height="118.93402mm"
   viewBox="0 0 117.30832 118.93402"
   version="1.1"
   id="svg842"
   inkscape:version="1.0.1 (3bc2e813f5, 2020-09-07)"
   sodipodi:docname="logo.svg">
  <defs
     id="defs836" />
  <sodipodi:namedview
     id="base"
     pagecolor="#ffffff"
     bordercolor="#666666"
     borderopacity="1.0"
     inkscape:pageopacity="0.0"
     inkscape:pageshadow="2"
     inkscape:zoom="0.98994949"
     inkscape:cx="344.46764"
     inkscape:cy="334.24885"
     inkscape:document-units="mm"
     inkscape:current-layer="layer1"
     inkscape:document-rotation="0"
     showgrid="false"
     inkscape:window-width="1816"
     inkscape:window-height="1019"
     inkscape:window-x="86"
     inkscape:window-y="1350"
     inkscape:window-maximized="0" />
  <metadata
     id="metadata839">
    <rdf:RDF>
      <cc:Work
         rdf:about="">
        <dc:format>image/svg+xml</dc:format>
        <dc:type
           rdf:resource="http://purl.org/dc/dcmitype/StillImage" />
        <dc:title></dc:title>
      </cc:Work>
    </rdf:RDF>
  </metadata>
  <g
     inkscape:label="Calque 1"
     inkscape:groupmode="layer"
     id="layer1"
     transform="translate(-49.229075,-37.244291)">
    <path
       style="fill:#ffffff;stroke-width:0.169333"
       d="m 101.12973,155.90565 c -1.303873,-0.13695 -2.397703,-0.27457 -2.430753,-0.30582 -0.0592,-0.056 1.00025,-10.61758 1.07412,-10.70739 0.0209,-0.0255 1.086013,0.0699 2.366853,0.21193 2.62731,0.29129 3.56757,0.61881 4.15835,1.44848 0.83072,1.16664 0.56811,3.11748 -0.52882,3.92847 l -0.47288,0.34963 0.43475,0.34197 c 0.96161,0.75641 1.1831,2.39989 0.48416,3.59254 -0.75517,1.2886 -1.68599,1.49729 -5.08578,1.14019 z m 3.1945,-1.9199 c 0.34041,-0.26777 0.44617,-0.5016 0.44617,-0.98648 0,-1.00953 -0.52438,-1.37508 -2.27744,-1.58766 -0.7982,-0.0968 -1.49014,-0.13711 -1.53764,-0.0896 -0.0475,0.0475 -0.13383,0.70189 -0.19185,1.45421 l -0.10547,1.36783 0.65919,0.0679 c 1.79607,0.18491 2.55723,0.12766 3.00704,-0.22616 z m 0.0625,-4.49482 c 0.73053,-0.46056 0.71039,-1.70569 -0.0355,-2.19441 -0.34988,-0.22925 -2.76302,-0.67138 -2.9026,-0.53181 -0.0876,0.0876 -0.38032,2.741 -0.31011,2.81122 0.12346,0.12346 2.179,0.31069 2.53123,0.23056 0.18627,-0.0424 0.50891,-0.18438 0.71698,-0.31556 z m 5.34591,6.38649 c -0.74001,-0.46386 -1.04268,-1.45123 -0.71156,-2.32123 0.38915,-1.02246 0.90743,-1.28173 2.94883,-1.47515 l 1.798,-0.17036 -0.10863,-0.43799 c -0.19061,-0.7685 -0.74059,-1.19998 -1.52954,-1.19998 -0.79679,0 -1.60199,0.50718 -1.60199,1.00906 0,0.2354 -0.18277,0.33456 -0.78242,0.42448 -0.98806,0.14817 -1.15724,-0.0107 -0.92594,-0.86974 0.66243,-2.46008 5.0498,-2.89245 6.21364,-0.61234 0.23545,0.46129 0.39775,1.20568 0.4777,2.19108 0.1273,1.56883 0.27321,1.92146 0.79509,1.92146 0.21614,0 0.31867,0.12199 0.32025,0.381 0.001,0.20955 0.0463,0.5451 0.10014,0.74567 0.19235,0.71698 -1.36589,0.73834 -2.12711,0.0292 -0.25879,-0.2411 -0.46083,-0.31183 -0.59858,-0.20956 -1.0396,0.77192 -1.20977,0.83324 -2.44927,0.88267 -1.04405,0.0416 -1.37638,-0.011 -1.81861,-0.28823 z m 3.43671,-1.60845 c 0.88576,-0.88575 0.78441,-1.0612 -0.56726,-0.98204 -1.1767,0.0689 -1.905,0.37001 -1.905,0.78758 0,0.44133 0.51851,0.7702 1.21436,0.7702 0.55002,0 0.7937,-0.11153 1.2579,-0.57574 z m 4.33502,-4.95933 c -0.77296,-3.33535 -1.40161,-6.14668 -1.397,-6.2474 0.007,-0.14336 1.55846,-0.63938 1.6353,-0.52267 0.0103,0.0157 0.26433,1.09527 0.56449,2.39914 0.30017,1.30386 0.62098,2.66511 0.71291,3.025 l 0.16715,0.65433 0.35148,-0.37727 c 0.89109,-0.95647 2.68386,-1.27439 3.94305,-0.69925 2.93878,1.34229 2.96728,5.65096 0.0455,6.87177 -0.71529,0.29887 -1.92904,0.34232 -2.58591,0.0926 -0.3977,-0.1512 -0.43468,-0.1344 -0.34261,0.15568 0.11023,0.34732 -0.0177,0.41825 -1.09628,0.60806 l -0.59267,0.1043 z m 5.20884,3.59112 c 1.29241,-0.66833 1.60197,-2.1492 0.67094,-3.20958 -0.87791,-0.99989 -2.16196,-1.02445 -3.04447,-0.0582 -0.82139,0.89931 -0.79934,1.88541 0.063,2.81727 0.66491,0.7185 1.48361,0.87813 2.31051,0.45053 z m 6.52588,-1.25575 c -3.30271,-1.52911 -2.6218,-6.37443 1.0015,-7.12663 1.08088,-0.22439 1.81779,-0.1184 2.72847,0.39243 0.62078,0.34822 1.5861,1.50013 1.5984,1.90738 0.003,0.10238 -1.22594,0.70491 -2.73118,1.33896 l -2.73681,1.15281 0.63933,0.5859 c 0.57033,0.52267 0.71782,0.57705 1.36667,0.50392 0.96577,-0.10886 1.7198,-0.66792 1.95367,-1.44851 0.14946,-0.49886 0.32932,-0.68751 0.8795,-0.92247 0.3804,-0.16245 0.72589,-0.26109 0.76778,-0.21921 0.0419,0.0419 0.0718,0.38893 0.0666,0.77121 -0.0326,2.35976 -3.23063,4.13058 -5.53389,3.06421 z m 1.28251,-4.35488 c 1.72331,-0.73907 1.82543,-0.82278 1.32832,-1.08883 -0.56125,-0.30037 -1.54822,-0.25575 -2.0822,0.0941 -0.63015,0.41289 -1.23381,1.60661 -0.81245,1.60661 0.0767,0 0.78159,-0.27536 1.56633,-0.61191 z m -40.313857,2.66393 c -10.146123,-3.42667 -19.164248,-9.58635 -25.993292,-17.75428 -2.497802,-2.98751 -3.041944,-3.81466 -2.803098,-4.26094 0.332681,-0.62162 0.804235,-0.42523 1.660879,0.6917 5.839765,7.61421 12.294284,13.02587 20.356028,17.0671 2.680619,1.34375 4.489418,2.08788 7.456797,3.06768 1.350433,0.4459 2.531143,0.92937 2.623801,1.07439 0.21455,0.33579 -0.07896,0.83948 -0.524429,0.89997 -0.176755,0.024 -1.426272,-0.32953 -2.776706,-0.78562 z m 47.260067,-2.3185 c -0.28487,-0.2397 -0.60535,-0.72755 -0.71218,-1.08413 -0.35326,-1.17907 0.4064,-2.10704 2.98913,-3.65142 0.25491,-0.15243 0.26404,-0.2246 0.0681,-0.53828 -0.51356,-0.82234 -1.51983,-0.8336 -2.38367,-0.0266 -0.43745,0.40864 -0.51087,0.58686 -0.45144,1.0959 0.0632,0.54124 0.005,0.65259 -0.52884,1.01548 -0.80627,0.54787 -0.99364,0.51532 -1.12705,-0.19581 -0.37858,-2.01801 1.07053,-3.81899 3.28376,-4.08112 1.36262,-0.16138 2.11259,0.30296 3.25059,2.0126 0.85284,1.28123 0.98093,1.40191 1.48801,1.40191 0.4421,0 0.62613,0.11241 0.90558,0.55314 0.28253,0.44559 0.31039,0.60174 0.14326,0.80312 -0.31576,0.38046 -1.41092,0.62518 -1.92431,0.42999 -0.40394,-0.15357 -0.45712,-0.11445 -0.75273,0.55384 -0.79157,1.78947 -3.0664,2.7059 -4.24825,1.71143 z m 2.79488,-1.83325 c 0.46752,-0.46753 0.57573,-0.70622 0.57573,-1.27 0,-0.38185 -0.0397,-0.69427 -0.0883,-0.69427 -0.14159,0 -1.48501,0.88173 -1.90137,1.24793 -0.41287,0.36314 -0.51034,1.04232 -0.16933,1.17992 0.5496,0.22177 1.04212,0.0776 1.58327,-0.46358 z m 4.82283,-3.13751 c -0.20719,-0.13114 -0.20658,-0.24048 0.004,-0.79492 0.21978,-0.57745 0.30871,-0.64508 0.87407,-0.66472 0.73846,-0.0256 1.30905,-0.47495 1.30905,-1.03081 0,-0.53259 -0.56544,-0.6542 -1.50295,-0.32323 -0.40753,0.14388 -1.11991,0.26159 -1.58307,0.26159 -0.719,0 -0.9121,-0.0749 -1.32092,-0.51258 -0.91176,-0.97604 -0.80507,-2.25641 0.26639,-3.19717 0.62934,-0.55256 1.73028,-0.9318 2.19138,-0.75486 0.2178,0.0836 0.26371,0.23428 0.18747,0.61548 -0.0555,0.27764 -0.10096,0.57147 -0.10096,0.65296 0,0.0815 -0.17354,0.14817 -0.38565,0.14817 -0.87121,0 -1.45763,0.87888 -0.89693,1.34422 0.18735,0.15549 0.44076,0.14117 1.1314,-0.0639 1.68446,-0.50023 2.74043,-0.28811 3.3776,0.67846 0.79963,1.21303 0.0721,2.84943 -1.57229,3.5365 -0.69485,0.29032 -1.60943,0.33878 -1.97903,0.10484 z m 8.60826,-3.19695 -0.94308,-1.99952 -3.45847,-1.31841 c -1.90216,-0.72512 -3.55409,-1.37162 -3.67095,-1.43666 -0.14853,-0.0827 -0.0188,-0.30739 0.43119,-0.74676 l 0.64365,-0.62852 2.51935,1.0154 c 1.38563,0.55846 2.53945,0.99528 2.56403,0.9707 0.0246,-0.0246 -0.48828,-1.09354 -1.13967,-2.37546 -0.72495,-1.42666 -1.14709,-2.44821 -1.08827,-2.63353 0.0529,-0.16651 0.31789,-0.51525 0.58897,-0.77497 l 0.49289,-0.47221 0.32789,0.65407 c 0.18034,0.35973 1.37692,2.88847 2.65907,5.61942 l 2.33119,4.96536 -0.56246,0.58031 c -0.30935,0.31917 -0.60516,0.5803 -0.65735,0.5803 -0.0522,0 -0.51928,-0.89978 -1.03798,-1.99952 z m -50.95536,-2.40792 c -9.113571,-0.69928 -17.877101,-3.88533 -25.14601,-9.14201 -1.898901,-1.37324 -5.071676,-4.01152 -6.088034,-5.06242 -0.464571,-0.48037 -0.812046,-0.69213 -1.135715,-0.69213 -0.737929,0 -4.810811,1.09857 -6.576919,1.77398 -4.607632,1.76209 -8.093944,3.9792 -11.461726,7.28907 -1.277225,1.25526 -2.405997,2.28229 -2.508384,2.28229 -0.281411,0 -0.592557,-0.36929 -0.592557,-0.7033 0,-0.84515 6.124902,-6.53729 11.091334,-10.30766 6.221276,-4.72301 11.747146,-7.42053 17.461591,-8.52409 4.396734,-0.84908 8.216817,-1.2203 21.993077,-2.1372 5.588013,-0.37192 11.341113,-0.79042 12.784673,-0.92999 1.44357,-0.13958 2.85327,-0.26069 3.13267,-0.26914 0.77566,-0.0235 0.30595,-0.14511 -1.10233,-0.28551 -1.19978,-0.11961 -1.27109,-0.15011 -1.31923,-0.56427 -0.0602,-0.51821 0.0944,-0.6537 1.3035,-1.14221 3.51319,-1.41942 6.85383,-5.07592 8.11657,-8.88401 1.31963,-3.97965 1.00491,-7.96822 -0.91595,-11.60834 -2.5052,-4.74746 -6.97829,-7.63315 -12.29558,-7.93215 -6.0065,-0.33777 -11.456303,2.81463 -14.167283,8.19499 -1.415488,2.80925 -1.886693,6.46455 -1.236868,9.59483 0.900689,4.33871 3.881438,8.26758 7.774171,10.24699 0.54768,0.27849 0.71966,0.4639 0.71966,0.77584 0,0.22544 -0.0953,0.4704 -0.21166,0.54435 -0.11642,0.0739 -1.96427,0.11066 -4.106343,0.0816 -6.526618,-0.0886 -14.425516,0.46903 -19.039563,1.3441 -2.581499,0.48958 -5.991257,1.40425 -7.898952,2.11889 -1.203215,0.45073 -1.72649,0.57392 -1.92035,0.45208 -0.624276,-0.39236 -0.536565,-4.33715 0.157924,-7.10258 0.445059,-1.7722 1.79502,-4.45622 2.93138,-5.82822 2.148266,-2.59374 5.501583,-4.34306 10.331103,-5.38941 2.275536,-0.49302 5.596249,-0.86156 7.762903,-0.86156 h 1.809186 l 0.113716,-0.97367 c 0.06255,-0.53552 0.178511,-1.27847 0.257705,-1.651 0.07919,-0.37253 0.09065,-0.72519 0.02547,-0.78367 -0.06519,-0.0585 -5.87162,-1.84015 -12.903186,-3.95925 -7.031567,-2.1191 -12.883595,-3.93148 -13.004506,-4.02751 -0.27845,-0.22115 -0.198848,-0.79687 0.139478,-1.00876 0.185175,-0.11597 3.940019,0.95044 13.262326,3.76661 7.15221,2.1606 13.024331,3.90202 13.049157,3.86981 0.02483,-0.0322 0.17673,-0.40146 0.337564,-0.82056 0.160835,-0.4191 0.558186,-1.21226 0.883001,-1.76257 0.324815,-0.55032 0.518973,-1.04562 0.431461,-1.10067 -0.08753,-0.0551 -5.044493,-3.64063 -11.015486,-7.96793 -11.24126,-8.14676 -11.322256,-8.21405 -10.604508,-8.80973 0.138513,-0.11496 0.348063,-0.17133 0.465667,-0.12527 0.117602,0.0461 5.122075,3.64206 11.12105,7.9911 l 10.907228,7.90736 1.350912,-1.35091 1.35092,-1.35092 -0.4015,-0.56758 c -0.22083,-0.31216 -3.77484,-5.24055 -7.89781,-10.95197 -4.12297,-5.71143 -7.496311,-10.52175 -7.496311,-10.6896 0,-0.41376 0.42382,-0.73698 0.796207,-0.60722 0.167454,0.0584 3.867095,5.05001 8.221425,11.09259 l 7.916959,10.9865 0.925653,-0.5574 c 0.50911,-0.30657 1.38513,-0.72923 1.94671,-0.93925 0.61933,-0.23161 1.02106,-0.48088 1.02106,-0.63355 0,-0.13844 -1.56211,-5.95943 -3.47134,-12.93552 -1.909243,-6.9761 -3.471343,-12.86519 -3.471343,-13.08687 0,-0.50914 0.51456,-0.76067 0.9674,-0.4729 0.11297,0.0718 1.81095,5.99135 3.773293,13.15458 1.96234,7.16323 3.59754,13.05371 3.63379,13.08996 0.0363,0.0362 0.60077,-0.0171 1.25449,-0.11851 0.65372,-0.10142 1.53593,-0.18441 1.96048,-0.18441 0.50444,0 0.77201,-0.0733 0.77223,-0.21167 0.002,-1.08453 1.70124,-26.92735 1.77911,-27.05333 0.14652,-0.23709 0.85615,-0.20714 1.05858,0.0447 0.11528,0.14339 -0.0946,4.3899 -0.65054,13.16566 -0.45139,7.1247 -0.82343,13.22914 -0.82676,13.56542 -0.006,0.60805 -10e-4,0.61196 0.8361,0.71115 0.46319,0.0549 1.38685,0.26196 2.05258,0.46022 0.66572,0.19826 1.27159,0.29734 1.34639,0.22018 0.0748,-0.0772 2.50791,-5.5124 5.40694,-12.0783 2.89903,-6.5659 5.38304,-12.10945 5.52002,-12.319 0.13698,-0.20955 0.36659,-0.381 0.51025,-0.381 0.43692,0 2.67992,1.10269 4.82494,2.37201 10.48391,6.20386 17.88162,16.55767 20.45736,28.63206 0.92463,4.33441 1.20525,10.97986 0.63215,14.96992 -1.20471,8.38757 -4.40877,15.87372 -9.27364,21.6675 -6.07291,7.23249 -17.79709,12.7981 -29.95068,14.21794 -2.77517,0.32421 -7.54885,0.44964 -9.98847,0.26245 z m 7.45915,-1.35706 c 9.94982,-0.77107 19.59495,-4.21215 26.73168,-9.53699 7.86915,-5.87133 13.12112,-16.52 13.99218,-28.36996 0.0966,-1.31452 0.0766,-1.57453 -0.11466,-1.49117 -0.12742,0.0555 -1.41278,0.62986 -2.85635,1.27629 -4.26557,1.91012 -8.11343,3.05988 -12.36133,3.69363 -2.14912,0.32063 -7.53654,0.41317 -10.36435,0.17803 l -1.64367,-0.13668 -0.53784,1.06801 c -0.29581,0.58741 -0.77041,1.41091 -1.05466,1.83001 -0.7684,1.1329 -2.7645,3.15041 -3.97561,4.01824 -0.58637,0.42017 -1.04194,0.78814 -1.01238,0.8177 0.20991,0.20991 7.45288,-0.52329 12.01962,-1.21675 2.45809,-0.37325 3.04552,-0.41624 3.25967,-0.23851 0.68701,0.57016 0.18823,1.01245 -1.88584,1.67226 -5.86044,1.86436 -12.29123,2.68338 -30.746343,3.91587 -17.184221,1.14762 -21.515876,1.68832 -26.021296,3.24811 -2.37512,0.82228 -6.151587,2.79265 -9.087675,4.74148 -2.429315,1.61247 -3.519736,2.45339 -2.764419,2.13191 2.192274,-0.9331 5.451961,-1.93922 7.520779,-2.32132 0.5588,-0.10321 1.185433,-0.2237 1.392518,-0.26776 0.294879,-0.0627 0.775331,0.28807 2.215874,1.61794 10.673161,9.8531 23.470699,14.44093 37.294102,13.36966 z M 70.886693,111.84316 c 1.128713,-0.60407 6.617321,-1.95386 10.056622,-2.47318 4.045529,-0.61086 11.03183,-1.08414 16.122412,-1.09221 l 2.20133,-0.003 -0.59267,-0.44854 c -0.96908,-0.73341 -2.657931,-2.5386 -3.407084,-3.64178 -1.442151,-2.12366 -2.425669,-4.79714 -2.776599,-7.54759 l -0.113428,-0.889 -1.88911,10e-4 c -6.090473,0.004 -12.423206,1.72671 -15.394859,4.18674 -2.821701,2.33589 -4.473939,5.90158 -4.787651,10.3322 -0.128378,1.81313 -0.08464,1.93171 0.581037,1.57545 z M 135.7584,99.90982 c 3.68364,-0.62178 6.03754,-1.27127 9.398,-2.5931 2.41041,-0.94813 5.56872,-2.44948 5.74172,-2.72941 0.15669,-0.25353 -0.21624,-4.52957 -0.59047,-6.77034 -1.61078,-9.64483 -6.67282,-18.63265 -14.09322,-25.02295 -2.19696,-1.89198 -5.62384,-4.21743 -8.05605,-5.46677 -1.58034,-0.81177 -1.70935,-0.85035 -1.86582,-0.55797 -0.14343,0.268 -9.31212,20.97198 -10.18964,23.0094 l -0.30607,0.71062 1.04844,0.58967 c 3.80681,2.14107 6.72634,6.21787 7.64485,10.67518 0.38747,1.88031 0.35833,5.04059 -0.0626,6.78649 -0.17952,0.74467 -0.30614,1.3742 -0.28137,1.39898 0.0248,0.0248 0.60931,0.11521 1.29896,0.20097 1.89594,0.23578 8.41319,0.09 10.31325,-0.23077 z m 19.60033,28.33568 c -0.49008,-0.28493 -0.34764,-0.73813 0.77819,-2.47607 4.68004,-7.22452 7.49696,-15.01693 8.68702,-24.03079 0.36121,-2.73593 0.41125,-9.94761 0.088,-12.67992 C 164.41197,84.83291 163.53457,80.8446 162.27649,77.079 155.64713,57.23643 138.40291,42.583405 117.70871,39.208187 112.9271,38.428308 105.92334,38.310368 101.38373,38.933284 83.957586,41.324463 69.111309,51.06242 60.073597,66.02938 c -5.273722,8.73359 -7.958523,18.51097 -7.964062,29.00315 -0.0043,8.18034 1.53359,15.53116 4.786485,22.87818 0.896453,2.02474 0.920774,2.4135 0.15811,2.52737 -0.433994,0.0648 -0.664849,-0.27285 -1.483197,-2.16937 -2.231472,-5.17143 -3.639232,-10.29062 -4.42378,-16.08667 -0.382018,-2.82225 -0.433804,-11.14765 -0.08532,-13.71599 1.047325,-7.71877 2.759058,-13.31899 6.055625,-19.812 2.742101,-5.40092 5.95117,-9.82148 10.365629,-14.27889 4.673656,-4.71912 8.975458,-7.872368 14.850634,-10.885593 6.052402,-3.10412 12.168504,-4.98272 19.324079,-5.935514 2.77283,-0.369214 10.6253,-0.420867 13.2726,-0.08731 6.16489,0.776778 11.42788,2.17346 16.68905,4.428901 8.34209,3.576216 16.02283,9.391356 21.87482,16.561576 12.51228,15.33082 16.33096,36.03095 10.11227,54.81615 -0.93861,2.83533 -1.98959,5.30496 -3.56705,8.382 -1.36031,2.65347 -3.85131,6.62386 -4.21509,6.71841 -0.0931,0.0242 -0.30268,-0.0335 -0.46567,-0.12828 z"
       id="path1419" />
  </g>
</svg>
