<svg id="visual" viewBox="0 0 960 540" width="960" height="540" xmlns="http://www.w3.org/2000/svg" xmlns:xlink="http://www.w3.org/1999/xlink" version="1.1"><rect x="0" y="0" width="960" height="540" fill="#0099ff"></rect><path d="M0 295L40 280C80 265 160 235 240 245.8C320 256.7 400 308.3 480 309.7C560 311 640 262 720 259.3C800 256.7 880 300.3 920 322.2L960 344L960 541L920 541C880 541 800 541 720 541C640 541 560 541 480 541C400 541 320 541 240 541C160 541 80 541 40 541L0 541Z" fill="#8dc8ef" stroke-linecap="round" stroke-linejoin="miter"></path></svg>