<svg id="visual" viewBox="0 0 960 540" width="960" height="540" xmlns="http://www.w3.org/2000/svg" xmlns:xlink="http://www.w3.org/1999/xlink" version="1.1"><path d="M0 444L32 448.2C64 452.3 128 460.7 192 463.7C256 466.7 320 464.3 384 460.7C448 457 512 452 576 448.7C640 445.3 704 443.7 768 447.8C832 452 896 462 928 467L960 472L960 541L928 541C896 541 832 541 768 541C704 541 640 541 576 541C512 541 448 541 384 541C320 541 256 541 192 541C128 541 64 541 32 541L0 541Z" fill="#0d2b40" stroke-linecap="round" stroke-linejoin="miter"></path></svg>