<?xml version="1.0" encoding="UTF-8" standalone="no"?>
<svg
   xmlns:dc="http://purl.org/dc/elements/1.1/"
   xmlns:cc="http://creativecommons.org/ns#"
   xmlns:rdf="http://www.w3.org/1999/02/22-rdf-syntax-ns#"
   xmlns:svg="http://www.w3.org/2000/svg"
   xmlns="http://www.w3.org/2000/svg"
   xmlns:sodipodi="http://sodipodi.sourceforge.net/DTD/sodipodi-0.dtd"
   xmlns:inkscape="http://www.inkscape.org/namespaces/inkscape"
   id="visual"
   viewBox="0 0 960 540"
   width="960"
   height="540"
   version="1.1"
   sodipodi:docname="wave-2.svg"
   inkscape:version="1.0.1 (3bc2e813f5, 2020-09-07)">
  <metadata
     id="metadata11">
    <rdf:RDF>
      <cc:Work
         rdf:about="">
        <dc:format>image/svg+xml</dc:format>
        <dc:type
           rdf:resource="http://purl.org/dc/dcmitype/StillImage" />
      </cc:Work>
    </rdf:RDF>
  </metadata>
  <defs
     id="defs9" />
  <sodipodi:namedview
     pagecolor="#ffffff"
     bordercolor="#666666"
     borderopacity="1"
     objecttolerance="10"
     gridtolerance="10"
     guidetolerance="10"
     inkscape:pageopacity="0"
     inkscape:pageshadow="2"
     inkscape:window-width="1920"
     inkscape:window-height="1013"
     id="namedview7"
     showgrid="false"
     inkscape:zoom="0.48122545"
     inkscape:cx="858.55994"
     inkscape:cy="327.2802"
     inkscape:window-x="-9"
     inkscape:window-y="-9"
     inkscape:window-maximized="1"
     inkscape:current-layer="visual" />
  <rect
     x="-960"
     y="0"
     width="960"
     height="540"
     fill="#0061a3"
     id="rect2"
     transform="scale(-1,1)" />
  <path
     d="m 960,340 -40,2.3 c -40,2.4 -120,7 -200,-14 -80,-21 -160,-67.6 -240,-97 C 400,202 320,190 240,193.8 160,197.7 80,217.3 40,227.2 L 0,237 v 304 h 40 c 40,0 120,0 200,0 80,0 160,0 240,0 80,0 160,0 240,0 80,0 160,0 200,0 h 40 z"
     fill="#0099ff"
     stroke-linecap="round"
     stroke-linejoin="miter"
     id="path4" />
</svg>
