<svg id="visual" viewBox="0 0 960 540" width="960" height="540" xmlns="http://www.w3.org/2000/svg" xmlns:xlink="http://www.w3.org/1999/xlink" version="1.1"><rect x="0" y="0" width="960" height="540" fill="#8dc8ef"></rect><path d="M0 216L40 220.5C80 225 160 234 240 256.7C320 279.3 400 315.7 480 324.3C560 333 640 314 720 283.8C800 253.7 880 212.3 920 191.7L960 171L960 541L920 541C880 541 800 541 720 541C640 541 560 541 480 541C400 541 320 541 240 541C160 541 80 541 40 541L0 541Z" fill="#006cb5" stroke-linecap="round" stroke-linejoin="miter"></path></svg>