<svg id="visual" viewBox="0 0 960 540" width="960" height="540" xmlns="http://www.w3.org/2000/svg" xmlns:xlink="http://www.w3.org/1999/xlink" version="1.1"><rect x="0" y="0" width="960" height="540" fill="#004777"></rect><path d="M0 262L40 272.5C80 283 160 304 240 309C320 314 400 303 480 278.2C560 253.3 640 214.7 720 220C800 225.3 880 274.7 920 299.3L960 324L960 541L920 541C880 541 800 541 720 541C640 541 560 541 480 541C400 541 320 541 240 541C160 541 80 541 40 541L0 541Z" fill="#0061a3" stroke-linecap="round" stroke-linejoin="miter"></path></svg>